<svg width="45" height="45" viewBox="0 0 45 45" fill="none" xmlns="http://www.w3.org/2000/svg">
<g transform="translate(0 4.5)">
<path fill-rule="evenodd" clip-rule="evenodd" d="M19.425.415V35.94c-20.354.253-27.584-15.88-7.588-27.155 3.161-1.782 6.288-3.905 7.588-8.37z" fill="#4C91CA"/>
<path fill-rule="evenodd" clip-rule="evenodd" d="M21.126 35.887v-4.25h.003L21.15 0l.202.053C25 .526 27.845 3.26 28.099 6.64c.434-.067.88-.102 1.334-.102 4.36 0 7.893 3.202 7.893 7.153a6.617 6.617 0 01-1.057 3.578l.136-.002c4.36 0 7.893 3.203 7.893 7.153 0 1.775-.714 3.4-1.895 4.65h-4.167v.018h-12.42v2.55h15.793v4.25H21.126z" fill="#46B749"/>
</g>
</svg>
